<svg width="24" height="25" viewBox="0 0 24 25" fill="none" xmlns="http://www.w3.org/2000/svg">
<path d="M21.25 9.64993C18.94 6.01993 15.56 3.92993 12 3.92993C10.22 3.92993 8.49 4.44993 6.91 5.41993C5.33 6.39993 3.91 7.82993 2.75 9.64993C1.75 11.2199 1.75 13.7699 2.75 15.3399C5.06 18.9799 8.44 21.0599 12 21.0599C13.78 21.0599 15.51 20.5399 17.09 19.5699C18.67 18.5899 20.09 17.1599 21.25 15.3399C22.25 13.7799 22.25 11.2199 21.25 9.64993ZM12 16.5399C9.76 16.5399 7.96 14.7299 7.96 12.4999C7.96 10.2699 9.76 8.45993 12 8.45993C14.24 8.45993 16.04 10.2699 16.04 12.4999C16.04 14.7299 14.24 16.5399 12 16.5399Z" fill="white"/>
<path d="M12.0004 9.63989C10.4304 9.63989 9.15039 10.9199 9.15039 12.4999C9.15039 14.0699 10.4304 15.3499 12.0004 15.3499C13.5704 15.3499 14.8604 14.0699 14.8604 12.4999C14.8604 10.9299 13.5704 9.63989 12.0004 9.63989Z" fill="white"/>
</svg>
