<svg width="25" height="24" viewBox="0 0 25 24" fill="none" xmlns="http://www.w3.org/2000/svg">
<path d="M12.5 12.75C9.33 12.75 6.75 10.17 6.75 7C6.75 3.83 9.33 1.25 12.5 1.25C15.67 1.25 18.25 3.83 18.25 7C18.25 10.17 15.67 12.75 12.5 12.75ZM12.5 2.75C10.16 2.75 8.25 4.66 8.25 7C8.25 9.34 10.16 11.25 12.5 11.25C14.84 11.25 16.75 9.34 16.75 7C16.75 4.66 14.84 2.75 12.5 2.75Z" fill="white"/>
<path d="M3.91016 22.75C3.50016 22.75 3.16016 22.41 3.16016 22C3.16016 17.73 7.35018 14.25 12.5002 14.25C12.9102 14.25 13.2502 14.59 13.2502 15C13.2502 15.41 12.9102 15.75 12.5002 15.75C8.18018 15.75 4.66016 18.55 4.66016 22C4.66016 22.41 4.32016 22.75 3.91016 22.75Z" fill="white"/>
<path d="M18.7 22.15C16.52 22.15 14.75 20.38 14.75 18.2C14.75 16.02 16.52 14.25 18.7 14.25C20.88 14.25 22.65 16.02 22.65 18.2C22.65 20.38 20.88 22.15 18.7 22.15ZM18.7 15.75C17.35 15.75 16.25 16.85 16.25 18.2C16.25 19.55 17.35 20.65 18.7 20.65C20.05 20.65 21.15 19.55 21.15 18.2C21.15 16.85 20.05 15.75 18.7 15.75Z" fill="white"/>
<path d="M22.4995 22.75C22.3095 22.75 22.1195 22.68 21.9695 22.53L20.9695 21.53C20.6795 21.24 20.6795 20.7599 20.9695 20.4699C21.2595 20.1799 21.7395 20.1799 22.0295 20.4699L23.0295 21.4699C23.3195 21.7599 23.3195 22.24 23.0295 22.53C22.8795 22.68 22.6895 22.75 22.4995 22.75Z" fill="white"/>
</svg>
