<svg width="15" height="15" viewBox="0 0 15 15" fill="none" xmlns="http://www.w3.org/2000/svg">
<path d="M8.5 7.141L9.621 6.021C9.80947 5.8387 10.062 5.73773 10.3242 5.73982C10.5864 5.74191 10.8373 5.8469 11.0228 6.03218C11.2084 6.21746 11.3137 6.4682 11.3162 6.7304C11.3186 6.99259 11.218 7.24527 11.036 7.434L8.207 10.263C8.11435 10.3562 8.00419 10.4301 7.88285 10.4806C7.76152 10.5311 7.63141 10.557 7.5 10.557C7.36859 10.557 7.23848 10.5311 7.11715 10.4806C6.99581 10.4301 6.88565 10.3562 6.793 10.263L3.964 7.434C3.87116 7.34102 3.79753 7.23067 3.74734 7.10924C3.69714 6.98781 3.67135 6.85769 3.67144 6.72629C3.67154 6.5949 3.69751 6.46481 3.74788 6.34345C3.79825 6.22209 3.87202 6.11184 3.965 6.019C4.05798 5.92616 4.16833 5.85253 4.28976 5.80234C4.41119 5.75214 4.54131 5.72635 4.67271 5.72644C4.8041 5.72654 4.93419 5.75251 5.05555 5.80288C5.17691 5.85325 5.28716 5.92702 5.38 6.02L6.5 7.141V1.5C6.5 1.23478 6.60536 0.98043 6.79289 0.792893C6.98043 0.605357 7.23478 0.5 7.5 0.5C7.76522 0.5 8.01957 0.605357 8.20711 0.792893C8.39464 0.98043 8.5 1.23478 8.5 1.5V7.141ZM1.5 12.5H13.5C13.7652 12.5 14.0196 12.6054 14.2071 12.7929C14.3946 12.9804 14.5 13.2348 14.5 13.5C14.5 13.7652 14.3946 14.0196 14.2071 14.2071C14.0196 14.3946 13.7652 14.5 13.5 14.5H1.5C1.23478 14.5 0.98043 14.3946 0.792893 14.2071C0.605357 14.0196 0.5 13.7652 0.5 13.5C0.5 13.2348 0.605357 12.9804 0.792893 12.7929C0.98043 12.6054 1.23478 12.5 1.5 12.5Z" fill="white"/>
</svg>
