<svg width="48" height="48" viewBox="0 0 48 48" fill="none" xmlns="http://www.w3.org/2000/svg">
<path d="M24.0008 45.5199C21.8208 45.5199 19.6608 44.8799 17.9608 43.6199L9.36078 37.1999C7.08078 35.4999 5.30078 31.9399 5.30078 29.1199V14.2399C5.30078 11.1599 7.56078 7.87988 10.4608 6.79988L20.4408 3.05988C22.4208 2.31988 25.5408 2.31988 27.5208 3.05988L37.5008 6.79988C40.4008 7.87988 42.6608 11.1599 42.6608 14.2399V29.0999C42.6608 31.9399 40.8808 35.4799 38.6008 37.1799L30.0008 43.5999C28.3408 44.8799 26.1808 45.5199 24.0008 45.5199ZM21.5008 5.87988L11.5208 9.61988C9.82078 10.2599 8.32078 12.4199 8.32078 14.2599V29.1199C8.32078 31.0199 9.66078 33.6799 11.1608 34.7999L19.7608 41.2199C22.0608 42.9399 25.9408 42.9399 28.2608 41.2199L36.8608 34.7999C38.3808 33.6599 39.7008 31.0199 39.7008 29.1199V14.2399C39.7008 12.4199 38.2008 10.2599 36.5008 9.59988L26.5208 5.85988C25.1608 5.37988 22.8408 5.37988 21.5008 5.87988Z" fill="#2E7D32"/>
<path d="M21.3205 28.46C20.9405 28.46 20.5605 28.32 20.2605 28.02L17.0405 24.8C16.4605 24.22 16.4605 23.26 17.0405 22.68C17.6205 22.1 18.5805 22.1 19.1605 22.68L21.3205 24.84L28.8605 17.3C29.4405 16.72 30.4005 16.72 30.9805 17.3C31.5605 17.88 31.5605 18.84 30.9805 19.42L22.3805 28.02C22.0805 28.32 21.7005 28.46 21.3205 28.46Z" fill="#2E7D32"/>
</svg>
