<svg width="48" height="48" viewBox="0 0 48 48" fill="none" xmlns="http://www.w3.org/2000/svg">
<rect width="48" height="48" rx="24" fill="#FFC1C1"/>
<path d="M24 25.68L27.48 29.16C27.7 29.38 27.98 29.49 28.32 29.49C28.66 29.49 28.94 29.38 29.16 29.16C29.38 28.94 29.49 28.66 29.49 28.32C29.49 27.98 29.38 27.7 29.16 27.48L25.68 24L29.16 20.52C29.38 20.3 29.49 20.02 29.49 19.68C29.49 19.34 29.38 19.06 29.16 18.84C28.94 18.62 28.66 18.51 28.32 18.51C27.98 18.51 27.7 18.62 27.48 18.84L24 22.32L20.52 18.84C20.3 18.62 20.02 18.51 19.68 18.51C19.34 18.51 19.06 18.62 18.84 18.84C18.62 19.06 18.51 19.34 18.51 19.68C18.51 20.02 18.62 20.3 18.84 20.52L22.32 24L18.84 27.48C18.62 27.7 18.51 27.98 18.51 28.32C18.51 28.66 18.62 28.94 18.84 29.16C19.06 29.38 19.34 29.49 19.68 29.49C20.02 29.49 20.3 29.38 20.52 29.16L24 25.68ZM24 36C22.34 36 20.78 35.6848 19.32 35.0544C17.86 34.424 16.59 33.5692 15.51 32.49C14.43 31.4108 13.5752 30.1408 12.9456 28.68C12.316 27.2192 12.0008 25.6592 12 24C11.9992 22.3408 12.3144 20.7808 12.9456 19.32C13.5768 17.8592 14.4316 16.5892 15.51 15.51C16.5884 14.4308 17.8584 13.576 19.32 12.9456C20.7816 12.3152 22.3416 12 24 12C25.6584 12 27.2184 12.3152 28.68 12.9456C30.1416 13.576 31.4116 14.4308 32.49 15.51C33.5684 16.5892 34.4236 17.8592 35.0556 19.32C35.6876 20.7808 36.0024 22.3408 36 24C35.9976 25.6592 35.6824 27.2192 35.0544 28.68C34.4264 30.1408 33.5716 31.4108 32.49 32.49C31.4084 33.5692 30.1384 34.4244 28.68 35.0556C27.2216 35.6868 25.6616 36.0016 24 36ZM24 33.6C26.68 33.6 28.95 32.67 30.81 30.81C32.67 28.95 33.6 26.68 33.6 24C33.6 21.32 32.67 19.05 30.81 17.19C28.95 15.33 26.68 14.4 24 14.4C21.32 14.4 19.05 15.33 17.19 17.19C15.33 19.05 14.4 21.32 14.4 24C14.4 26.68 15.33 28.95 17.19 30.81C19.05 32.67 21.32 33.6 24 33.6Z" fill="#D50000"/>
</svg>
